<?xml version="1.0" standalone="no"?>
<!DOCTYPE svg PUBLIC "-//W3C//DTD SVG 20010904//EN"
 "http://www.w3.org/TR/2001/REC-SVG-20010904/DTD/svg10.dtd">
<svg version="1.0" xmlns="http://www.w3.org/2000/svg"
 width="3723.000000pt" height="2729.000000pt" viewBox="0 0 3723.000000 2729.000000"
 preserveAspectRatio="xMidYMid meet">

<g transform="translate(0.000000,2729.000000) scale(0.100000,-0.100000)"
fill="#000000" stroke="none">
<path d="M14772 23300 c-1405 -93 -2612 -782 -3264 -1863 -99 -164 -230 -430
-388 -787 -409 -925 -581 -1174 -1286 -1855 -438 -423 -676 -664 -818 -830
-529 -616 -843 -1220 -946 -1820 -33 -194 -45 -414 -32 -584 28 -349 103 -629
256 -946 89 -185 154 -293 360 -600 89 -132 187 -283 218 -335 178 -301 249
-524 251 -785 1 -186 -31 -350 -112 -587 -107 -308 -241 -557 -596 -1103 -292
-449 -405 -646 -505 -878 -149 -349 -208 -613 -217 -982 -10 -397 52 -769 192
-1160 60 -171 232 -516 339 -683 483 -754 1270 -1386 2189 -1759 233 -94 836
-277 854 -260 2 3 -9 48 -26 99 -227 709 -286 1570 -165 2408 87 608 275 1231
529 1758 141 291 293 533 555 882 80 107 173 233 206 279 68 96 201 258 292
355 54 58 65 66 79 55 17 -15 5 -26 209 203 281 315 470 593 630 923 236 488
335 986 289 1450 -26 273 -9 238 -160 323 -715 404 -1260 969 -1655 1717 -35
66 -64 121 -65 123 -1 1 -48 -3 -105 -9 -189 -22 -374 14 -547 106 -481 255
-755 898 -581 1364 90 241 314 417 598 470 130 24 131 24 217 -63 165 -166
324 -240 538 -252 291 -16 589 128 875 423 321 329 543 759 605 1173 8 52 15
114 15 138 0 23 2 42 5 42 3 0 30 -18 60 -40 87 -64 172 -106 303 -150 255
-85 487 -116 805 -107 718 21 1491 300 2100 759 484 364 802 793 923 1246 18
66 32 102 41 102 27 0 150 -69 233 -131 150 -111 319 -286 589 -609 294 -351
519 -700 581 -900 144 -465 232 -1042 247 -1626 l6 -242 96 -10 c176 -20 295
-77 417 -197 115 -114 183 -241 222 -412 21 -95 23 -347 4 -438 -102 -473
-439 -776 -869 -779 l-111 -1 -47 -120 c-425 -1087 -1343 -1830 -2535 -2049
-228 -42 -393 -58 -668 -63 l-262 -6 6 -36 c4 -20 17 -79 31 -131 82 -321 234
-510 515 -639 217 -100 445 -147 968 -201 341 -35 516 -61 656 -95 54 -13 102
-21 105 -17 3 4 34 43 69 87 158 198 368 421 549 583 339 301 742 524 1133
626 425 112 736 124 1131 45 312 -62 739 -233 1007 -403 30 -19 57 -33 59 -31
7 7 -97 182 -293 495 -351 561 -465 835 -482 1155 -13 247 56 471 271 880 352
669 353 987 5 1505 -113 168 -213 284 -530 615 -276 288 -383 427 -498 645
-94 177 -141 339 -202 691 -205 1180 -530 2016 -953 2456 -249 258 -481 367
-782 366 -168 -1 -279 -28 -511 -123 l-31 -13 -114 111 c-600 585 -1402 941
-2333 1037 -185 19 -566 27 -744 15z"/>
<path d="M14500 18834 c-275 -40 -500 -131 -640 -261 -82 -76 -110 -124 -110
-186 0 -215 499 -205 883 16 136 79 237 198 237 281 0 42 -36 89 -91 116 -58
30 -193 46 -279 34z"/>
<path d="M17578 18759 c-194 -28 -223 -165 -69 -320 280 -279 892 -403 961
-194 25 75 -31 174 -159 276 -199 161 -527 267 -733 238z"/>
<path d="M29765 18124 c-11 -2 -407 -29 -880 -59 -473 -31 -875 -60 -895 -65
-72 -20 -132 -80 -152 -153 -12 -45 -10 -51 75 -304 120 -359 208 -657 285
-968 25 -98 29 -133 25 -191 -6 -84 6 -131 49 -180 53 -60 70 -62 703 -76 830
-18 1027 -17 1094 6 110 38 167 123 177 264 3 42 -1 244 -10 447 -9 204 -16
485 -16 625 0 140 -5 284 -10 320 -38 244 -121 327 -335 335 -49 2 -99 2 -110
-1z m40 -914 c9 -239 21 -471 26 -515 5 -44 9 -97 9 -118 l0 -39 -562 7 c-310
3 -582 8 -604 11 l-41 5 -43 167 c-53 209 -132 485 -203 710 -30 94 -54 172
-53 173 0 0 325 22 721 48 l720 46 7 -30 c4 -16 14 -226 23 -465z"/>
<path d="M14275 17794 c-99 -51 -173 -200 -196 -397 -20 -170 16 -359 85 -450
50 -66 92 -90 148 -84 121 11 220 174 249 411 40 324 -116 609 -286 520z"/>
<path d="M17813 17749 c-70 -20 -143 -128 -178 -264 -65 -252 10 -567 151
-636 90 -43 169 3 233 133 102 208 91 516 -24 683 -51 75 -114 104 -182 84z"/>
<path d="M15447 16035 c-19 -19 -32 -129 -23 -198 16 -126 83 -258 169 -333
62 -54 157 -96 230 -101 157 -12 290 105 329 290 14 66 6 90 -34 95 -31 4 -40
-7 -67 -92 -29 -91 -70 -149 -124 -175 -109 -53 -250 6 -337 141 -54 82 -74
167 -67 272 5 72 3 86 -12 100 -22 20 -45 20 -64 1z"/>
<path d="M19945 13328 c-108 -56 -219 -167 -264 -261 -71 -150 -63 -258 25
-336 72 -64 123 -76 305 -76 l157 0 -49 -54 c-182 -198 -216 -382 -100 -529
49 -61 89 -87 171 -108 140 -36 318 30 515 189 44 36 81 64 83 62 1 -1 9 -29
18 -61 72 -283 303 -489 570 -509 288 -23 532 159 614 456 25 93 41 251 33
339 l-5 65 -107 108 c-139 141 -239 226 -386 325 -289 194 -590 324 -895 386
-169 34 -292 46 -462 46 l-143 -1 -80 -41z"/>
<path d="M18737 12137 c-110 -25 -144 -78 -87 -135 66 -66 199 -110 365 -119
178 -9 275 22 275 88 0 37 -30 69 -100 104 -116 59 -334 89 -453 62z"/>
<path d="M18646 11568 c-123 -64 -244 -285 -222 -403 17 -90 99 -114 189 -54
158 104 259 367 175 456 -28 30 -88 30 -142 1z"/>
<path d="M20690 10960 c-42 -42 -20 -165 55 -307 89 -168 201 -284 298 -307
42 -10 77 30 77 87 0 126 -116 348 -243 464 -89 81 -149 101 -187 63z"/>
<path d="M18428 10776 c-132 -29 -230 -137 -294 -321 -26 -73 -28 -93 -28
-225 0 -91 4 -155 11 -172 l12 -28 62 40 c63 40 156 80 188 80 13 0 21 13 30
54 52 233 380 252 593 33 128 -131 144 -328 36 -423 -20 -18 -42 -34 -49 -36
-9 -3 -9 -15 1 -57 15 -63 18 -149 7 -213 l-8 -48 34 0 c53 0 163 37 255 85
200 106 320 251 352 423 26 144 -45 321 -159 393 -82 53 -137 63 -336 63 -156
1 -185 3 -208 19 -27 17 -57 54 -142 174 -92 129 -225 189 -357 159z"/>
<path d="M20412 10474 c-103 -51 -215 -211 -242 -346 -27 -134 32 -218 133
-188 175 52 341 341 283 493 -27 72 -85 85 -174 41z"/>
<path d="M18362 9980 c-54 -19 -152 -86 -152 -103 0 -6 25 -41 55 -78 66 -82
166 -164 270 -223 80 -46 246 -109 273 -104 38 7 52 140 24 222 -17 50 -17 50
-89 71 -118 36 -216 105 -270 190 -15 25 -35 45 -43 45 -8 -1 -39 -9 -68 -20z"/>
<path d="M5854 9970 c-334 -46 -574 -299 -578 -610 -1 -117 14 -179 69 -295
53 -110 132 -200 233 -266 89 -59 153 -83 256 -99 199 -30 376 34 517 188 187
205 222 520 83 755 -19 32 -34 66 -34 75 -1 34 -38 98 -76 131 -45 40 -158 94
-229 109 -75 17 -172 21 -241 12z m157 -430 c10 -6 19 -17 19 -24 0 -7 13 -31
29 -53 63 -87 62 -190 -3 -276 -78 -103 -206 -101 -302 5 -116 129 -73 284 95
344 44 16 135 18 162 4z"/>
</g>
</svg>
