<svg xmlns="http://www.w3.org/2000/svg" viewBox="0 0 130 130"><title>Icon</title><g id="Graphic"><ellipse cx="65.38" cy="112.71" rx="60.62" ry="10.4" style="fill:#d2efef"/><path d="M86.15,114.65c-3.83,1-7.06-3.34-8.52-5.75-.54-.88-.84-1.5-.84-1.5L87.15,106a15,15,0,0,1,1.13,1.4C90.25,110.15,91,113.36,86.15,114.65Z" style="fill:#fec5a7"/><path d="M88.28,107.42a10.24,10.24,0,0,1-5.88,2,18.7,18.7,0,0,1-4.77-.51c-.54-.88-.84-1.5-.84-1.5L87.15,106A15,15,0,0,1,88.28,107.42Z" style="fill:#e89a84"/><path d="M75.57,90s14-1.52,15.88,5-3.2,11.93-3.2,11.93c-1.33,1.33-8.25,2.34-11.61.61a8.34,8.34,0,0,0,.67-3.75c-.26-1.59-15.57,2.93-20.65,4.45s-15.36-.38-18.61-3.84c-2.69-2.87-2.81-10.32,2.09-12.18,3.74-1.41,14-1,14-1Z" style="fill:#ffc200"/><path d="M78.05,103.12A4.16,4.16,0,0,1,82.69,100,17.16,17.16,0,0,0,78.05,103.12Z" style="fill:#fa0"/><path d="M77.46,102.68a10.36,10.36,0,0,1,2.27-6.22,5.2,5.2,0,0,0-2.4,2.72A4.18,4.18,0,0,0,77.46,102.68Z" style="fill:#fa0"/><path d="M61.57,113.1c-3.76,2.37-6.17.18-7.56-3.14-.16-.38-.31-.79-.44-1.19l5.12-8.22s.13.15.34.42C60.43,102.85,65.76,110.46,61.57,113.1Z" style="fill:#fec5a7"/><path d="M59,101a16.62,16.62,0,0,1-5,9c-.16-.38-.31-.79-.44-1.19l5.12-8.22S58.82,100.7,59,101Z" style="fill:#e89a84"/><path d="M58.88,100.18a33.11,33.11,0,0,1-5.83,9.56,44.38,44.38,0,0,1-10.47-2.49,10.81,10.81,0,0,1-4.75-2.93,8.26,8.26,0,0,1-1.68-5.12A8.43,8.43,0,0,1,37.06,95a5,5,0,0,1,3.32-2.54,7.37,7.37,0,0,1,3.35.36C49,94.35,53.82,97,58.88,100.18Z" style="fill:#ffd261"/><path d="M85.13,56.81c.43-1.5.56-2.3,1-3.8a1.23,1.23,0,0,1,.45-.76.81.81,0,0,1,1.08.51c.16.46-.12,1.47-.05,1.94a12.47,12.47,0,0,1,3-1.77c.5-.2,1.14-.35,1.52,0,1.09,1.08-1.28,2-1.89,2.84,1.59-.36,3.47-.52,3.7.4s-2.1,1.34-2.94,1.73a7,7,0,0,1,2.39.51c.32.14.68.4.59.74s-.4.35-.67.39L91.07,60c.3.38.84.43,1.3.58s.92.65.69,1.07-.57.36-.91.38l-5.43.28C86.31,60.72,85.89,59.14,85.13,56.81Z" style="fill:#fec5a7"/><path d="M87.68,55.57a2.88,2.88,0,0,1,.39,2.85,2.89,2.89,0,0,0,.6-1.64C88.66,56.19,88.35,55.58,87.68,55.57Z" style="fill:#e89a84"/><path d="M28.85,70.92c-.62-1.43-.86-2.2-1.48-3.64a1.18,1.18,0,0,0-.55-.7.81.81,0,0,0-1,.65c-.11.48.3,1.45.3,1.92a12.49,12.49,0,0,0-3.22-1.35c-.52-.14-1.18-.2-1.51.23-.93,1.21,1.53,1.77,2.25,2.56-1.63-.15-3.51-.06-3.62.89s2.25,1,3.15,1.32a6.79,6.79,0,0,0-2.31.82c-.3.17-.62.49-.48.81s.43.29.71.3l2.28.11c-.25.41-.78.54-1.21.75s-.83.76-.55,1.15.61.28.95.25L28,76.57C28.19,75,28.4,73.34,28.85,70.92Z" style="fill:#fec5a7"/><path d="M26.35,69.9a2.77,2.77,0,0,0-.29,3.33,3.49,3.49,0,0,1-.8-1.69A1.52,1.52,0,0,1,26.35,69.9Z" style="fill:#e89a84"/><path d="M76.79,76.87a132.38,132.38,0,0,1,3.11,13c-10.07,5.77-22.16,5.82-33.2,1.32.2-1.84.2-6.59.2-9.19-6.61-.42-14.06-1.39-19.66-4.23a25.27,25.27,0,0,1,1-8.61,53.8,53.8,0,0,0,14.2.71,44.18,44.18,0,0,0,5.37-.75,78.54,78.54,0,0,0,24.39-6.3,35.87,35.87,0,0,0,5-2,54.94,54.94,0,0,0,7.64-4.54c2,1.93,3.45,4.49,3.87,8.67C85.62,70,81.59,73.55,76.79,76.87Z" style="fill:#376168"/><path d="M77.2,60.84A24.07,24.07,0,0,1,62.36,73.58a23.3,23.3,0,0,1-19.89-3.73,44.18,44.18,0,0,0,5.37-.75,78.54,78.54,0,0,0,24.39-6.3A35.87,35.87,0,0,0,77.2,60.84Z" style="fill:#274d51"/><path d="M52.89,69a23.46,23.46,0,0,0,4.45,2.43,8,8,0,0,0,5,.36c2.77-.81,4.58-3.51,5.51-6.21C63,67,58,67.85,52.89,69Z" style="fill:#e89a84"/><path d="M73.38,49.66c2.48-1.65,5.51-1.45,6.78.45s.27,4.78-2.22,6.43-5.51,1.44-6.78-.46S70.89,51.3,73.38,49.66Z" style="fill:#e89a84"/><path d="M40.06,66.42c7.82,5.54,19,4,27.86.44,3-1.21,6-2.94,7.57-5.76s1.24-6.91-1.48-8.67c-.73-8-1.19-11.62-3-15.73-2.25-5-3.77-5.89-7.45-8.47-4.72-3.32-10.45-3.31-16.06-1.93C40,28.15,32.72,33.26,30,40.48,25,53.59,35.38,63.12,40.06,66.42Z" style="fill:#fec5a7"/><circle cx="46.6" cy="65" r="3.27" style="fill:#ffb5a9"/><circle cx="72.39" cy="57" r="3.27" style="fill:#ffb5a9"/><path d="M35.57,58.24a27.71,27.71,0,0,1,5.64-22.85A12.38,12.38,0,0,0,47.1,37.6a6,6,0,0,0,5.52-2.66,7.72,7.72,0,0,1-2.52-1.13,5.37,5.37,0,0,0,4.3-.18,9.86,9.86,0,0,0,3.39-2.77,10.88,10.88,0,0,1-4.42-1.34c1,.42,4.71-.55,5.56-2.06-3.06-.51-8.67.46-11.54.23A35.37,35.37,0,0,0,35.21,35a32.28,32.28,0,0,0-2.69,16A15.41,15.41,0,0,0,35.57,58.24Z" style="fill:#e89a84"/><path d="M33.89,61.38a40.39,40.39,0,0,0,4,2.73c-2.18-5.07-4.1-10.54-4-16.17S36.51,36.5,41.3,33.55A9.19,9.19,0,0,0,47,37,7.43,7.43,0,0,0,53.46,35a8.5,8.5,0,0,1-6.22-3,6.61,6.61,0,0,0,6,1.41,13,13,0,0,0,5.53-3.06,7.64,7.64,0,0,1-6.91-1.6,8.64,8.64,0,0,0,4.34.22c.32-.09.65-.2,1-.31a6.48,6.48,0,0,0,2.57-1.64A13.68,13.68,0,0,1,65.92,31c2.88,3.11,5,6.43,7.22,13.58-.07-5.48-3.68-13.25-7.91-16.45a17.45,17.45,0,0,0-4.59-2.48,4.85,4.85,0,0,0-.1-4.3,5.79,5.79,0,0,1-3.27,3.44c-.43-.07-.86-.13-1.3-.16a5.58,5.58,0,0,0,.87-3.44A5.87,5.87,0,0,0,55,17.33,3.74,3.74,0,0,1,54,21.19c-1,1.14-4.46,3.22-8.94,5.15-3.74,1.62-7.64,3.1-10.63,5.82l-.37.35-.35.34a19.46,19.46,0,0,0-6,14.91C28.16,52.79,30.82,57.36,33.89,61.38Z" style="fill:#3f3f3f"/><path d="M40.88,29.07c4.64-1.66,10.64-3.48,14-7.16.86,2.19-.9,3.63-2.4,4.26a11,11,0,0,0,7.06-1.52,5,5,0,0,1-2.45,4.07,6.59,6.59,0,0,0,2.57-1.64A13.66,13.66,0,0,1,65.92,31c2.88,3.12,5,6.44,7.22,13.58-.07-5.47-3.68-13.24-7.91-16.44a17.2,17.2,0,0,0-4.59-2.49,4.83,4.83,0,0,0-.1-4.29,5.75,5.75,0,0,1-3.27,3.43c-.43-.07-.86-.12-1.3-.15a5.61,5.61,0,0,0,.87-3.45A5.82,5.82,0,0,0,55,17.34,3.72,3.72,0,0,1,54,21.19c-1,1.14-4.46,3.22-8.94,5.16-3.74,1.62-7.64,3.09-10.63,5.82l-.37.34-.35.34A32.08,32.08,0,0,1,40.88,29.07Z" style="fill:#5b5b5b"/><ellipse cx="36.62" cy="64.35" rx="4" ry="5.53" transform="translate(-28.93 98.79) rotate(-88.07)" style="fill:#fec5a7"/><path d="M63.79,57.45a2,2,0,0,1,.52,2.31" style="fill:none;stroke:#c96b65;stroke-linecap:round;stroke-miterlimit:10"/><path d="M63.81,61.08a7,7,0,0,1-4.27.23c-.67-.17-1.42-.42-2,0a1.55,1.55,0,0,0-.45,1.6,2.82,2.82,0,0,0,1,1.43,4.45,4.45,0,0,0,6.25-.41,2.62,2.62,0,0,0,.76-1.75C65.1,61.49,64.6,60.78,63.81,61.08Z" style="fill:#fff"/><path d="M65.4,44.27a.31.31,0,0,1-.43-.42A7.9,7.9,0,0,1,66.34,42a3.93,3.93,0,0,1,3.19-1.23,2.83,2.83,0,0,1,2.28,2,.31.31,0,0,1-.37.38A8.1,8.1,0,0,0,65.4,44.27Z" style="fill:#3f3f3f"/><path d="M49.26,48.75a.56.56,0,0,0,.22-1A5.7,5.7,0,0,0,41,51.32a.56.56,0,0,0,.92.55A11.79,11.79,0,0,1,49.26,48.75Z" style="fill:#3f3f3f"/><path d="M52.59,60.64a.22.22,0,0,1-.22.37,6.73,6.73,0,0,0-3.56-.2,6.9,6.9,0,0,0-3.13,1.62.22.22,0,0,1-.36-.23,4.48,4.48,0,0,1,3.13-2.79A4.63,4.63,0,0,1,52.59,60.64Z" style="fill:#3f3f3f"/><path d="M73.25,54a.2.2,0,0,1-.18.34,5,5,0,0,0-3.32.32,4.89,4.89,0,0,0-2.29,2.43.19.19,0,0,1-.37-.08,4.11,4.11,0,0,1,2-3.43A3.57,3.57,0,0,1,73.25,54Z" style="fill:#3f3f3f"/><rect x="41.74" y="74.08" width="0.19" height="6.15" transform="translate(-22.84 17.83) rotate(-19)" style="fill:#ea6a47"/><path d="M53.23,93.84l-5.09-4.92L95.63,39.63l6.73,6.25-46,47.91A2.17,2.17,0,0,1,53.23,93.84Z" style="fill:#34a585"/><polygon points="37.2 78.22 43.35 71.1 58.49 86.42 52.58 93.14 37.2 78.22" style="fill:#34a585"/><path d="M86.81,28.29l31.29-8.88a1.81,1.81,0,0,1,2.28,2.08l-6,32.38a1.82,1.82,0,0,1-3,1L86.07,31.37A1.82,1.82,0,0,1,86.81,28.29Z" style="fill:#34a585"/><path d="M14.16,108.51,10.3,105a2.18,2.18,0,0,1-.13-3.1L39.61,70.21a1.94,1.94,0,0,1,2.81,0l5,5.14L17.22,108.37A2.18,2.18,0,0,1,14.16,108.51Z" style="fill:#34a585"/></g></svg>