<svg xmlns="http://www.w3.org/2000/svg" viewBox="0 0 281.07 97.79"><title>LOGO_BIYUBI</title><g id="BIYUBI"><g id="Font"><path d="M115.1,66.51V92.22a4.61,4.61,0,0,1-1.59,3.49,5.4,5.4,0,0,1-3.8,1.48,5.51,5.51,0,0,1-3.88-1.48,4.63,4.63,0,0,1-1.58-3.49V66.45a170.78,170.78,0,0,1-10.34-19,191.05,191.05,0,0,1-9.08-22.72Q81.07,13.22,81.07,4.9a4.53,4.53,0,0,1,1.59-3.46A5.52,5.52,0,0,1,86.53,0a5.46,5.46,0,0,1,3.8,1.44A4.53,4.53,0,0,1,91.92,4.9a52.77,52.77,0,0,0,2.77,15.24,162.89,162.89,0,0,0,6.86,18.12q4.1,9.2,8.23,16.78,4.65-7.51,9.41-16.68a169.53,169.53,0,0,0,8.12-18q3.36-8.82,3.36-15.07a4.58,4.58,0,0,1,1.59-3.52A5.57,5.57,0,0,1,136.14.34a5.47,5.47,0,0,1,3.8,1.44,4.57,4.57,0,0,1,1.58,3.52,47.09,47.09,0,0,1-2.65,14.43,137.68,137.68,0,0,1-6.76,16.68Q128,45,123.48,52.79T115.1,66.51Z" style="fill:#ffc200"/><path d="M3.93,9.8A5,5,0,0,1,0,5,5.05,5.05,0,0,1,5,0a59,59,0,0,1,14.6,1.88A48.39,48.39,0,0,1,33.24,7.62a32.16,32.16,0,0,1,10.09,9.73,24.71,24.71,0,0,1,3.86,13.86,28.3,28.3,0,0,1-2.21,11,33,33,0,0,1-6.13,9.57,38.34,38.34,0,0,1-9,7.24,35.55,35.55,0,0,1,4.89,2.62,21.75,21.75,0,0,1,6.37,6.45,15.36,15.36,0,0,1,2.45,8.45,14.92,14.92,0,0,1-2.73,8.79A22.62,22.62,0,0,1,34,91.82a37.45,37.45,0,0,1-12.23,4.53,70.42,70.42,0,0,1-13,1.24,5,5,0,0,1-3.41-1.27,5.21,5.21,0,0,1-1.69-3.23q-2-20.19-2-40.54,0-10.72.66-21.41T3.93,9.8ZM11.85,56a50.35,50.35,0,0,0,10.5-4,32.94,32.94,0,0,0,8.92-6.71,23.46,23.46,0,0,0,4.24-6.51,18.68,18.68,0,0,0,1.55-7.52,15.47,15.47,0,0,0-3.41-10.13A25.23,25.23,0,0,0,25,14.36a43.27,43.27,0,0,0-11-3.62q-1,10.47-1.58,20.91t-.62,20.9Zm1.51,31.54a34.62,34.62,0,0,0,15.16-4.09A13.89,13.89,0,0,0,32,80.54a5.87,5.87,0,0,0,1.52-4,6.12,6.12,0,0,0-1.34-3.86A12.5,12.5,0,0,0,29,69.87a22.34,22.34,0,0,0-7.85-3.15,37.45,37.45,0,0,0-8-.88h-1.1Q12.47,76.72,13.36,87.52Z" style="fill:#34a585"/><path d="M62.08,56c-1.67,0-2.8-.5-3.4-1.5a5.74,5.74,0,0,1-.9-3,5.37,5.37,0,0,1,.94-2.94,3.68,3.68,0,0,1,3.36-1.46,9.31,9.31,0,0,1,2.4.34,5.69,5.69,0,0,1,2.32,1.24,3.12,3.12,0,0,1,1,2.47,4.17,4.17,0,0,1-1.73,3.51A6.54,6.54,0,0,1,62.08,56ZM67,63.25q-.33,7.66-.33,15.33,0,7.19.29,14.39v.14a3.57,3.57,0,0,1-1,2.46,4.53,4.53,0,0,1-6.22.34,4,4,0,0,1-1.39-2.59q-.3-7.59-.29-15.16T58.36,63a3.81,3.81,0,0,1,1.3-2.62,4.41,4.41,0,0,1,3.14-1.11,4.59,4.59,0,0,1,3.07,1.28A3.71,3.71,0,0,1,67,63.25Z" style="fill:#34a585"/><path d="M108.74,66.51V92.22a4.75,4.75,0,0,1-1.48,3.49,4.87,4.87,0,0,1-3.55,1.48,4.93,4.93,0,0,1-3.61-1.48,4.75,4.75,0,0,1-1.48-3.49V66.45a173.68,173.68,0,0,1-9.65-19A197.6,197.6,0,0,1,80.5,24.77Q77,13.22,77,4.9a4.68,4.68,0,0,1,1.49-3.46A5,5,0,0,1,82.08,0a4.92,4.92,0,0,1,3.55,1.44A4.67,4.67,0,0,1,87.11,4.9a56.4,56.4,0,0,0,2.58,15.24A172.78,172.78,0,0,0,96.1,38.26q3.83,9.2,7.68,16.78,4.35-7.51,8.79-16.68a178.23,178.23,0,0,0,7.57-18q3.14-8.82,3.14-15.07a4.72,4.72,0,0,1,1.48-3.52A5,5,0,0,1,128.37.34a4.92,4.92,0,0,1,3.55,1.44A4.72,4.72,0,0,1,133.4,5.3a49.87,49.87,0,0,1-2.48,14.43,142.68,142.68,0,0,1-6.3,16.68q-3.83,8.56-8.06,16.38T108.74,66.51Z" style="fill:#34a585"/><path d="M197.68,4.9V56.11a101.71,101.71,0,0,1-1,13.86,47.22,47.22,0,0,1-4.17,14,25,25,0,0,1-9.19,10.44A23.88,23.88,0,0,1,171,97.79a17.89,17.89,0,0,1-7-1.41,21.46,21.46,0,0,1-10.68-10.13,48.42,48.42,0,0,1-4.86-15.37,104.82,104.82,0,0,1-1.2-14.77V4.9a4.63,4.63,0,0,1,1.51-3.46,5.18,5.18,0,0,1,7.17,0,4.63,4.63,0,0,1,1.51,3.46V56.11A93.4,93.4,0,0,0,158.17,67a48.34,48.34,0,0,0,2.44,10.68,25.31,25.31,0,0,0,2.76,5.57A11.12,11.12,0,0,0,168,87.32a8.65,8.65,0,0,0,3,.54,13.88,13.88,0,0,0,6.82-1.75,17,17,0,0,0,6.3-8.19,43.91,43.91,0,0,0,2.75-11.44,98.15,98.15,0,0,0,.66-10.37V4.9A4.67,4.67,0,0,1,189,1.44,4.92,4.92,0,0,1,192.58,0a5,5,0,0,1,3.61,1.44A4.68,4.68,0,0,1,197.68,4.9Z" style="fill:#34a585"/><path d="M217.14,9.8a5,5,0,0,1-2.79-1.71A5,5,0,0,1,213.21,5a5.07,5.07,0,0,1,5-5,59.11,59.11,0,0,1,14.61,1.88,48.33,48.33,0,0,1,13.6,5.74,32,32,0,0,1,10.09,9.73,24.63,24.63,0,0,1,3.86,13.86,28.29,28.29,0,0,1-2.2,11,33.23,33.23,0,0,1-6.13,9.57,38.39,38.39,0,0,1-9,7.24A34.42,34.42,0,0,1,248,61.68a21.75,21.75,0,0,1,6.37,6.45,15.36,15.36,0,0,1,2.45,8.45,15,15,0,0,1-2.72,8.79,22.73,22.73,0,0,1-6.92,6.45A37.53,37.53,0,0,1,235,96.35a70.45,70.45,0,0,1-13,1.24,5,5,0,0,1-3.41-1.27,5.2,5.2,0,0,1-1.68-3.23q-2-20.19-2-40.54,0-10.72.65-21.41T217.14,9.8ZM225.06,56a50.65,50.65,0,0,0,10.51-4,33.09,33.09,0,0,0,8.92-6.71,23.92,23.92,0,0,0,4.24-6.51,18.68,18.68,0,0,0,1.55-7.52,15.47,15.47,0,0,0-3.41-10.13,25.36,25.36,0,0,0-8.65-6.72,43.2,43.2,0,0,0-10.95-3.62q-1,10.47-1.59,20.91t-.62,20.9Zm1.52,31.54a34.62,34.62,0,0,0,15.15-4.09,13.76,13.76,0,0,0,3.45-2.89,5.86,5.86,0,0,0,1.51-4,6.06,6.06,0,0,0-1.34-3.86,12.63,12.63,0,0,0-3.13-2.85,22.39,22.39,0,0,0-7.86-3.15,37.45,37.45,0,0,0-8-.88h-1.1Q225.69,76.72,226.58,87.52Z" style="fill:#34a585"/><path d="M275.29,56q-2.49,0-3.39-1.5a5.67,5.67,0,0,1-.91-3,5.45,5.45,0,0,1,.94-2.94,3.7,3.7,0,0,1,3.36-1.46,9.19,9.19,0,0,1,2.4.34A5.73,5.73,0,0,1,280,48.75a3.12,3.12,0,0,1,1.05,2.47,4.15,4.15,0,0,1-1.74,3.51A6.52,6.52,0,0,1,275.29,56Zm4.91,7.21q-.33,7.66-.32,15.33,0,7.19.28,14.39v.14a3.56,3.56,0,0,1-1,2.46,4.54,4.54,0,0,1-6.23.34,4,4,0,0,1-1.39-2.59q-.29-7.59-.29-15.16T271.57,63a3.85,3.85,0,0,1,1.3-2.62A4.43,4.43,0,0,1,276,59.31a4.59,4.59,0,0,1,3.07,1.28A3.67,3.67,0,0,1,280.2,63.25Z" style="fill:#34a585"/></g></g></svg>